<svg width="24" height="24" viewBox="0 0 24 24" fill="none" xmlns="http://www.w3.org/2000/svg">
<path d="M18.2579 8.21027L12.0116 14.3579C11.8753 14.4927 11.6913 14.5684 11.4996 14.5684C11.3079 14.5684 11.124 14.4927 10.9877 14.3579L4.74138 8.2116C4.60425 8.07684 4.41967 8.00133 4.22741 8.00133C4.03515 8.00133 3.85057 8.07684 3.71344 8.2116C3.64591 8.27744 3.59225 8.35612 3.55561 8.44302C3.51896 8.52991 3.50008 8.62327 3.50008 8.71757C3.50008 8.81188 3.51896 8.90523 3.5556 8.99213C3.59225 9.07903 3.64591 9.15771 3.71344 9.22354L9.9584 15.3698C10.3697 15.7737 10.9232 16 11.4996 16C12.0761 16 12.6295 15.7737 13.0409 15.3698L19.2858 9.22355C19.3536 9.15769 19.4074 9.07893 19.4442 8.99191C19.4809 8.90489 19.4999 8.81138 19.4999 8.71691C19.4999 8.62244 19.4809 8.52893 19.4442 8.44191C19.4074 8.35489 19.3536 8.27613 19.2858 8.21027C19.1487 8.07551 18.9641 8 18.7719 8C18.5796 8 18.395 8.07551 18.2579 8.21027Z" fill="white"/>
</svg>
