<svg width="24" height="24" viewBox="0 0 24 24" fill="none" xmlns="http://www.w3.org/2000/svg">
<path d="M5.58686 15.816L11.0524 10.4368C11.1716 10.3189 11.3326 10.2527 11.5003 10.2527C11.6681 10.2527 11.8291 10.3189 11.9483 10.4368L17.4138 15.8148C17.5338 15.9328 17.6953 15.9988 17.8635 15.9988C18.0318 15.9988 18.1933 15.9328 18.3133 15.8148C18.3723 15.7572 18.4193 15.6884 18.4514 15.6124C18.4834 15.5363 18.5 15.4546 18.5 15.3721C18.5 15.2896 18.4834 15.2079 18.4514 15.1319C18.4193 15.0559 18.3723 14.987 18.3133 14.9294L12.8489 9.55139C12.489 9.19799 12.0047 9 11.5003 9C10.9959 9 10.5117 9.19799 10.1517 9.55139L4.68741 14.9294C4.62814 14.987 4.58103 15.0559 4.54887 15.1321C4.5167 15.2082 4.50012 15.29 4.50012 15.3727C4.50012 15.4554 4.5167 15.5372 4.54887 15.6133C4.58103 15.6895 4.62814 15.7584 4.68741 15.816C4.8074 15.9339 4.9689 16 5.13713 16C5.30536 16 5.46686 15.9339 5.58686 15.816Z" fill="white"/>
</svg>
