<svg width="24" height="24" viewBox="0 0 24 24" fill="none" xmlns="http://www.w3.org/2000/svg">
<path d="M18.06 2.82994C16.91 2.05994 15.6 1.50994 14.2 1.21994C13.58 1.09994 13 1.56994 13 2.20994C13 2.66994 13.31 3.08994 13.76 3.17994C14.93 3.40994 16.02 3.87994 16.97 4.51994C17.36 4.77994 17.87 4.70994 18.2 4.37994C18.66 3.92994 18.59 3.17994 18.06 2.82994ZM11 2.20994C11 1.56994 10.42 1.09994 9.80004 1.21994C8.40004 1.50994 7.09004 2.05994 5.94004 2.82994C5.42004 3.17994 5.35004 3.92994 5.79004 4.36994C6.12004 4.69994 6.63004 4.76994 7.02004 4.50994C7.98004 3.86994 9.06004 3.40994 10.23 3.16994C10.69 3.08994 11 2.66994 11 2.20994ZM4.38004 5.78994C4.27559 5.68505 4.14914 5.60466 4.00984 5.55457C3.87054 5.50448 3.72186 5.48594 3.57452 5.50029C3.42719 5.51464 3.28488 5.56152 3.15786 5.63755C3.03085 5.71358 2.9223 5.81687 2.84004 5.93994C2.05469 7.10818 1.50758 8.4199 1.23004 9.79994C1.20038 9.94525 1.20341 10.0953 1.23891 10.2393C1.27442 10.3833 1.3415 10.5176 1.43531 10.6325C1.52911 10.7473 1.6473 10.8399 1.78129 10.9035C1.91529 10.967 2.06174 11 2.21004 10.9999C2.67004 10.9999 3.09004 10.6899 3.18004 10.2399C3.41004 9.06994 3.88004 7.97994 4.52004 7.01994C4.77004 6.63994 4.70004 6.11994 4.38004 5.78994ZM21.79 10.9999C21.9383 11 22.0848 10.967 22.2188 10.9035C22.3528 10.8399 22.471 10.7473 22.5648 10.6325C22.6586 10.5176 22.7257 10.3833 22.7612 10.2393C22.7967 10.0953 22.7997 9.94525 22.77 9.79994C22.48 8.39994 21.93 7.09994 21.16 5.93994C20.81 5.41994 20.06 5.33994 19.62 5.78994C19.29 6.11994 19.22 6.62994 19.48 7.01994C20.12 7.97994 20.58 9.06994 20.82 10.2399C20.91 10.6899 21.33 10.9999 21.79 10.9999ZM8.00004 12.4599L10.44 13.5699L11.54 15.9999C11.5798 16.0872 11.6439 16.1613 11.7245 16.2131C11.8052 16.265 11.8991 16.2926 11.995 16.2926C12.091 16.2926 12.1849 16.265 12.2655 16.2131C12.3462 16.1613 12.4103 16.0872 12.45 15.9999L13.56 13.5599L16 12.4599C16.0873 12.4202 16.1613 12.3561 16.2132 12.2755C16.2651 12.1948 16.2927 12.1009 16.2927 12.0049C16.2927 11.909 16.2651 11.8151 16.2132 11.7344C16.1613 11.6538 16.0873 11.5897 16 11.5499L13.56 10.4399L12.46 7.99994C12.4203 7.91265 12.3562 7.83864 12.2755 7.78674C12.1949 7.73484 12.101 7.70725 12.005 7.70725C11.9091 7.70725 11.8152 7.73484 11.7345 7.78674C11.6539 7.83864 11.5898 7.91265 11.55 7.99994L10.44 10.4399L8.00004 11.5399C7.61004 11.7199 7.61004 12.2799 8.00004 12.4599Z" fill="#B8B8BB"/>
<path d="M12 21C10.5232 20.9997 9.06937 20.6343 7.76786 19.9365C6.46635 19.2386 5.35751 18.2299 4.54 17H6C6.55 17 7 16.55 7 16C7 15.45 6.55 15 6 15H2C1.45 15 1 15.45 1 16V20C1 20.55 1.45 21 2 21C2.55 21 3 20.55 3 20V18.3C4.99 21.14 8.27 23 12 23C16.45 23 20.27 20.36 22 16.57C22.0597 16.4345 22.089 16.2876 22.0856 16.1395C22.0822 15.9915 22.0464 15.846 21.9805 15.7134C21.9147 15.5808 21.8205 15.4643 21.7046 15.3721C21.5888 15.2799 21.454 15.2143 21.31 15.18C20.86 15.08 20.38 15.29 20.19 15.72C18.77 18.83 15.64 21 12 21Z" fill="#B8B8BB"/>
</svg>
