<svg width="24" height="24" viewBox="0 0 24 24" fill="none" xmlns="http://www.w3.org/2000/svg">
<path d="M4 20.9998H20M5.666 13.1868C5.23962 13.6142 5.00011 14.1932 5 14.7968V17.9998H8.223C8.827 17.9998 9.406 17.7598 9.833 17.3318L19.333 7.82685C19.7592 7.39945 19.9986 6.82046 19.9986 6.21685C19.9986 5.61323 19.7592 5.03425 19.333 4.60685L18.395 3.66685C18.1835 3.4552 17.9323 3.28732 17.6558 3.17282C17.3794 3.05831 17.083 2.99942 16.7838 2.99951C16.4846 2.9996 16.1883 3.05868 15.9119 3.17336C15.6355 3.28804 15.3844 3.45607 15.173 3.66785L5.666 13.1868Z" stroke="white" stroke-width="1.5" stroke-linecap="round" stroke-linejoin="round"/>
</svg>
