<svg width="24" height="24" viewBox="0 0 24 24" fill="none" xmlns="http://www.w3.org/2000/svg">
<path d="M3 18V6.2C3 5.08 3 4.52 3.218 4.092C3.41 3.715 3.715 3.41 4.092 3.218C4.52 3 5.08 3 6.2 3H17.8C18.92 3 19.48 3 19.908 3.218C20.2843 3.40974 20.5903 3.71569 20.782 4.092C21 4.519 21 5.079 21 6.197V17.803C21 18.288 21 18.668 20.982 18.977M3 18C3 18.988 3.013 19.506 3.218 19.907C3.41 20.284 3.715 20.59 4.092 20.782C4.519 21 5.079 21 6.197 21H17.804C18.922 21 19.481 21 19.908 20.782C20.284 20.59 20.59 20.284 20.782 19.907C20.905 19.665 20.959 19.381 20.982 18.977M3 18L7.768 12.438L7.769 12.436C8.192 11.943 8.404 11.696 8.655 11.606C8.87559 11.5279 9.11658 11.5297 9.336 11.611C9.586 11.704 9.796 11.954 10.212 12.454L12.883 15.659C13.269 16.123 13.463 16.355 13.699 16.449C13.9068 16.5308 14.136 16.5406 14.35 16.477C14.594 16.405 14.81 16.19 15.239 15.761L15.736 15.264C16.173 14.826 16.392 14.608 16.64 14.536C16.8575 14.4734 17.0899 14.4864 17.299 14.573C17.537 14.672 17.73 14.913 18.117 15.395L20.982 18.977M20.982 18.977L21 19M15 9C14.7348 9 14.4804 8.89464 14.2929 8.70711C14.1054 8.51957 14 8.26522 14 8C14 7.73478 14.1054 7.48043 14.2929 7.29289C14.4804 7.10536 14.7348 7 15 7C15.2652 7 15.5196 7.10536 15.7071 7.29289C15.8946 7.48043 16 7.73478 16 8C16 8.26522 15.8946 8.51957 15.7071 8.70711C15.5196 8.89464 15.2652 9 15 9Z" stroke="#B8B8BB" stroke-width="1.5" stroke-linecap="round" stroke-linejoin="round"/>
</svg>
