<svg width="24" height="24" viewBox="0 0 24 24" fill="none" xmlns="http://www.w3.org/2000/svg">
<path d="M20.998 11C20.9993 11.47 21 11.97 21 12.5C21 16.978 21 19.218 19.609 20.609C18.218 22 15.979 22 11.5 22C7.022 22 4.782 22 3.391 20.609C2 19.218 2 16.979 2 12.5C2 8.022 2 5.782 3.391 4.391C4.782 3 7.021 3 11.5 3C12.03 3 12.53 3.00067 13 3.002" stroke="#B8B8BB" stroke-width="1.5" stroke-linecap="round" stroke-linejoin="round"/>
<path d="M4.5 21.5C8.872 16.275 13.774 9.384 20.998 14.042M18.5 2L18.758 2.697C19.096 3.611 19.265 4.068 19.598 4.401C19.932 4.735 20.389 4.904 21.303 5.242L22 5.5L21.303 5.758C20.389 6.096 19.932 6.265 19.599 6.598C19.265 6.932 19.096 7.389 18.758 8.303L18.5 9L18.242 8.303C17.904 7.389 17.735 6.932 17.402 6.599C17.068 6.265 16.611 6.096 15.697 5.758L15 5.5L15.697 5.242C16.611 4.904 17.068 4.735 17.401 4.402C17.735 4.068 17.904 3.611 18.242 2.697L18.5 2Z" stroke="#B8B8BB" stroke-width="1.5" stroke-linecap="round" stroke-linejoin="round"/>
</svg>
