<svg width="24" height="24" viewBox="0 0 24 24" fill="none" xmlns="http://www.w3.org/2000/svg">
<path d="M11.5968 21.201C16.8988 21.201 21.1968 16.9029 21.1968 11.601C21.1968 6.29904 16.8988 2.00098 11.5968 2.00098C6.29489 2.00098 1.99683 6.29904 1.99683 11.601C1.99683 16.9029 6.29489 21.201 11.5968 21.201Z" stroke="#B8B8BB" stroke-width="1.5" stroke-linecap="round" stroke-linejoin="round"/>
<path d="M1.99683 11.6006H21.1968" stroke="#B8B8BB" stroke-width="1.5" stroke-linecap="round" stroke-linejoin="round"/>
<path d="M11.5968 21.201C13.7176 21.201 15.4368 16.9029 15.4368 11.601C15.4368 6.29904 13.7176 2.00098 11.5968 2.00098C9.47605 2.00098 7.75684 6.29904 7.75684 11.601C7.75684 16.9029 9.47605 21.201 11.5968 21.201Z" stroke="#B8B8BB" stroke-width="1.5" stroke-linecap="round" stroke-linejoin="round"/>
<path d="M4.80786 4.9502C6.54512 6.68746 8.94512 7.76199 11.5961 7.76199C14.2471 7.76199 16.6471 6.68746 18.3843 4.9502" stroke="#B8B8BB" stroke-width="1.5" stroke-linecap="round" stroke-linejoin="round"/>
<path d="M18.3843 18.2532C16.6471 16.5159 14.2471 15.4414 11.5961 15.4414C8.94512 15.4414 6.54512 16.5159 4.80786 18.2532" stroke="#B8B8BB" stroke-width="1.5" stroke-linecap="round" stroke-linejoin="round"/>
</svg>
