<svg width="24" height="24" viewBox="0 0 24 24" fill="none" xmlns="http://www.w3.org/2000/svg">
<path d="M4.65278 5.73369C4.50005 6.10139 4.50075 6.56737 4.50005 7.49863C4.50075 8.4313 4.50005 8.89729 4.65278 9.26357C4.75329 9.50627 4.90063 9.7268 5.08638 9.91255C5.27213 10.0983 5.49266 10.2456 5.73536 10.3461C6.10235 10.4996 6.56763 10.4996 7.5003 10.4989C8.43156 10.4996 8.89825 10.4996 9.26524 10.3461C9.755 10.1432 10.1441 9.75404 10.3471 9.26428C10.5006 8.89729 10.5006 8.43201 10.4998 7.49934C10.4991 6.56666 10.4998 6.1021 10.3471 5.7344C10.1441 5.24464 9.755 4.85551 9.26524 4.65253C8.89754 4.49979 8.43297 4.49908 7.5003 4.49979C6.56763 4.5005 6.10235 4.49908 5.73465 4.65182C5.24489 4.8548 4.85576 5.24393 4.65278 5.73369ZM4.65207 14.7345C4.50005 15.1014 4.49934 15.5674 4.50005 16.4987C4.50005 17.4321 4.50005 17.8973 4.65207 18.2643C4.75258 18.507 4.89992 18.7276 5.08567 18.9133C5.27143 19.0991 5.49195 19.2464 5.73465 19.3469C6.10235 19.4996 6.56833 19.4989 7.49959 19.4996C8.43227 19.4989 8.89754 19.4989 9.26453 19.3469C9.50723 19.2464 9.72776 19.0991 9.91351 18.9133C10.0993 18.7276 10.2466 18.507 10.3471 18.2643C10.4998 17.8966 10.4998 17.4314 10.4998 16.4994C10.4998 15.5674 10.4998 15.1021 10.3471 14.7345C10.1441 14.2447 9.755 13.8556 9.26524 13.6526C8.89754 13.4998 8.43227 13.4984 7.49959 13.4991C6.56692 13.4998 6.10235 13.4991 5.73465 13.6519C5.24489 13.8549 4.85505 14.2447 4.65207 14.7345ZM13.5001 7.49863C13.5008 8.43131 13.5008 8.89658 13.6528 9.26357C13.7533 9.50627 13.9007 9.7268 14.0864 9.91255C14.2722 10.0983 14.4927 10.2456 14.7354 10.3461C15.1031 10.4989 15.5684 10.4989 16.5004 10.4989C17.4323 10.4989 17.8983 10.4982 18.2653 10.3461C18.7551 10.1432 19.1442 9.75404 19.3472 9.26428C19.4999 8.89658 19.5006 8.4306 19.5006 7.49863C19.5006 6.56666 19.4999 6.1021 19.3479 5.73369C19.1449 5.24393 18.7558 4.8548 18.266 4.65182C17.8976 4.49979 17.4323 4.49838 16.5004 4.49838C15.5677 4.49908 15.1024 4.49908 14.7354 4.65111C14.4927 4.75162 14.2722 4.89896 14.0864 5.08471C13.9007 5.27046 13.7533 5.49099 13.6528 5.73369C13.5008 6.10068 13.5001 6.56666 13.5001 7.49863ZM13.6528 14.7337C13.5001 15.1014 13.5008 15.5674 13.5001 16.4987C13.5008 17.4314 13.5001 17.8973 13.6535 18.2643C13.8565 18.7541 14.2457 19.1432 14.7354 19.3462C15.1024 19.4996 15.5677 19.4996 16.5004 19.4989C17.4316 19.4996 17.8983 19.4996 18.2653 19.3462C18.7551 19.1432 19.1442 18.7541 19.3472 18.2643C19.5006 17.8973 19.5006 17.4321 19.4999 16.4994C19.4992 15.5667 19.4999 15.1022 19.3472 14.7345C19.1442 14.2444 18.7553 13.8555 18.2653 13.6526C17.8976 13.4998 17.4323 13.4984 16.5004 13.4998C15.5677 13.4991 15.1024 13.4991 14.7347 13.6519C14.2449 13.8549 13.8558 14.244 13.6528 14.7337Z" stroke="#B8B8BB" stroke-width="1.5" stroke-linecap="round" stroke-linejoin="round"/>
</svg>
