<svg width="24" height="24" viewBox="0 0 24 24" fill="none" xmlns="http://www.w3.org/2000/svg">
<path d="M4.49363 10.9743H8.45463C8.7843 10.9757 9.11099 10.9119 9.41596 10.7868C9.72092 10.6616 9.99816 10.4775 10.2317 10.245C10.4653 10.0124 10.6507 9.7361 10.7772 9.43181C10.9036 9.12752 10.9687 8.80126 10.9687 8.47175V4.49229H9.96873V4.49319M4.49363 10.9743L9.96873 4.49319M4.49363 10.9743C4.16485 10.9763 3.83905 10.9119 3.53576 10.785C3.23248 10.6581 2.95795 10.4713 2.72863 10.2358M4.49363 10.9743L2.72863 10.2358M9.96873 4.49319C9.96831 4.29953 9.92938 4.10787 9.85417 3.92935C9.77887 3.75061 9.66871 3.5886 9.53008 3.45278L9.52417 3.447L9.51837 3.44112C9.38058 3.30159 9.21644 3.19074 9.03544 3.11502C8.85457 3.03934 8.66047 3.00025 8.46436 3H4.49594C4.09865 3.0021 3.71839 3.16119 3.43815 3.44243C3.15752 3.72408 3.00005 4.10527 3.00005 4.50254V4.50255V8.47175V8.47837H3.00003C2.99875 8.67287 3.03633 8.86569 3.1106 9.04551C3.18487 9.22534 3.29433 9.38856 3.43259 9.5256L3.43889 9.53185L3.44507 9.5382C3.58047 9.67724 3.74259 9.78756 3.92173 9.86251C4.10088 9.93746 4.29334 9.9755 4.48757 9.97432L4.49363 9.97428V9.9743H8.45463H8.45872V9.97431C8.6568 9.97512 8.85308 9.93683 9.03628 9.86164C9.21949 9.78645 9.386 9.67585 9.52627 9.53622C9.66655 9.39659 9.77782 9.23068 9.85374 9.04802C9.92966 8.86536 9.96873 8.66953 9.96873 8.47175V4.49319ZM2.72863 10.2358C2.49581 10.0051 2.31144 9.73017 2.18633 9.42724C2.06121 9.12432 1.99789 8.79947 2.00005 8.47175M2.72863 10.2358L2.00005 8.47175M2.00005 8.47175V4.50255V8.47175ZM14.0211 8.47557H14.0211V8.47175L14.0211 4.50255L14.0211 4.50002C14.0206 4.30509 14.0591 4.11201 14.1344 3.93216C14.2098 3.75231 14.3203 3.58932 14.4597 3.45278L14.4656 3.447L14.4714 3.44112C14.6092 3.30159 14.7733 3.19074 14.9544 3.11501C15.1352 3.03934 15.3293 3.00025 15.5254 3H19.4916C19.8905 3.00415 20.2718 3.16436 20.5538 3.44619C20.8358 3.72802 20.9959 4.10892 21 4.50714V8.46721C20.9959 8.86437 20.8366 9.24435 20.556 9.526C20.2758 9.80723 19.8967 9.96809 19.4996 9.9743H15.5283C15.1267 9.97116 14.7418 9.81389 14.4531 9.53528C14.3162 9.3963 14.2077 9.23203 14.1336 9.05161C14.0585 8.86885 14.0203 8.6731 14.0211 8.47557ZM20.9988 17.9427L21 17.9415V19.4928C20.9959 19.8899 20.8366 20.2699 20.556 20.5516C20.2758 20.8328 19.8968 20.9936 19.4996 20.9999H15.5249V20.9998L15.5148 20.9999C15.1109 21.004 14.7214 20.852 14.4273 20.5761C14.292 20.4389 14.1847 20.2766 14.1115 20.0983C14.0368 19.9165 13.9991 19.7216 14.0005 19.5251H14.0005V19.5178L14.0005 15.5486L14.0005 15.5461C14 15.3512 14.0386 15.1581 14.1139 14.9782C14.1892 14.7984 14.2998 14.6354 14.4392 14.4989L14.4451 14.4931L14.4509 14.4872C14.5887 14.3477 14.7528 14.2368 14.9338 14.1611C15.1148 14.0854 15.3091 14.0463 15.5053 14.0461H19.471C19.8699 14.0502 20.2513 14.2104 20.5333 14.4923C20.8161 14.7749 20.9763 15.1572 20.9795 15.5567L20.9988 17.9427ZM9.96873 15.5362V15.5384V19.5007C9.96249 19.8983 9.80089 20.2778 9.5182 20.558C9.23463 20.8391 8.85189 20.9978 8.45232 20.9999L4.49363 20.9999L4.48949 20.9999C4.2936 21.0007 4.09949 20.9627 3.91838 20.8882C3.73727 20.8136 3.57275 20.704 3.4343 20.5656C3.29586 20.4273 3.18623 20.2629 3.1117 20.082C3.03718 19.9011 2.99923 19.7073 3.00005 19.5117V19.5076V15.5406C3.0021 15.1418 3.16069 14.7595 3.44192 14.4761C3.72232 14.1935 4.10227 14.0318 4.50047 14.0256H8.45916C8.86169 14.0308 9.24663 14.1909 9.53408 14.4722C9.81341 14.7559 9.96958 15.1383 9.96873 15.5362Z" stroke="#B8B8BB" stroke-width="2"/>
</svg>
