<svg width="24" height="24" viewBox="0 0 24 24" fill="none" xmlns="http://www.w3.org/2000/svg">
<path d="M16.2867 7.5C15.8915 7.5 15.5733 7.83398 15.5733 8.24883V15.7477C15.5733 17.8184 13.9759 19.4988 12 19.4988C10.0241 19.4988 8.42666 17.8184 8.42666 15.7477V6.74766C8.42666 5.50664 9.38446 4.49766 10.57 4.49766C11.7555 4.49766 12.7133 5.50664 12.7133 6.74766V14.25C12.7133 14.6648 12.3918 14.9988 12 14.9988C11.6082 14.9988 11.2867 14.6648 11.2867 14.25V8.24883C11.2867 7.83398 10.9652 7.5 10.5733 7.5C10.1782 7.5 9.86001 7.83398 9.86001 8.24883V14.25C9.86001 15.4945 10.8178 16.5 12.0033 16.5C13.1889 16.5 14.1467 15.4945 14.1467 14.25V6.75117C14.1433 4.68047 12.5425 3 10.57 3C8.59746 3 7 4.68047 7 6.75117V15.7512C7 18.6516 9.24046 21 12 21C14.7595 21 17 18.648 17 15.7512V8.24883C17 7.83398 16.6818 7.5 16.2867 7.5Z" fill="#B8B8BB"/>
</svg>
