<svg width="24" height="24" viewBox="0 0 24 24" fill="none" xmlns="http://www.w3.org/2000/svg">
<path d="M16.75 8.25V8.25C17.9135 8.25 18.4953 8.25 18.9643 8.40921C19.8475 8.70901 20.541 9.40251 20.8408 10.2857C21 10.7547 21 11.3365 21 12.5V18.875C21 20.0486 20.0486 21 18.875 21V21C17.7014 21 16.75 20.0486 16.75 18.875V7.2C16.75 6.07989 16.75 5.51984 16.532 5.09202C16.3403 4.71569 16.0343 4.40973 15.658 4.21799C15.2302 4 14.6701 4 13.55 4H7.2C6.07989 4 5.51984 4 5.09202 4.21799C4.71569 4.40973 4.40973 4.71569 4.21799 5.09202C4 5.51984 4 6.07989 4 7.2V17.8C4 18.9201 4 19.4802 4.21799 19.908C4.40973 20.2843 4.71569 20.5903 5.09202 20.782C5.51984 21 6.07989 21 7.2 21H18.875" stroke="#B8B8BB" stroke-width="1.5"/>
<path d="M13 8H8V13H13V8Z" stroke="#B8B8BB" stroke-width="1.5" stroke-linejoin="round"/>
<path d="M8 17H13" stroke="#B8B8BB" stroke-width="1.5" stroke-linecap="round"/>
</svg>
