<svg width="26" height="26" viewBox="0 0 26 26" fill="none" xmlns="http://www.w3.org/2000/svg">
<path d="M11.7813 13C11.7813 12.759 11.8528 12.5233 11.9867 12.3229C12.1206 12.1225 12.3109 11.9663 12.5336 11.874C12.7563 11.7818 13.0014 11.7576 13.2378 11.8047C13.4742 11.8517 13.6914 11.9678 13.8618 12.1382C14.0323 12.3087 14.1483 12.5258 14.1954 12.7622C14.2424 12.9986 14.2182 13.2437 14.126 13.4664C14.0338 13.6891 13.8775 13.8794 13.6771 14.0134C13.4767 14.1473 13.2411 14.2188 13 14.2188C12.6768 14.2188 12.3668 14.0903 12.1382 13.8618C11.9097 13.6332 11.7813 13.3232 11.7813 13ZM8.53128 14.2188C8.77232 14.2188 9.00796 14.1473 9.20838 14.0134C9.4088 13.8794 9.56501 13.6891 9.65725 13.4664C9.7495 13.2437 9.77363 12.9986 9.72661 12.7622C9.67958 12.5258 9.56351 12.3087 9.39306 12.1382C9.22262 11.9678 9.00546 11.8517 8.76904 11.8047C8.53263 11.7576 8.28758 11.7818 8.06488 11.874C7.84218 11.9663 7.65184 12.1225 7.51792 12.3229C7.38401 12.5233 7.31253 12.759 7.31253 13C7.31253 13.3232 7.44093 13.6332 7.66949 13.8618C7.89805 14.0903 8.20804 14.2188 8.53128 14.2188ZM17.4688 14.2188C17.7098 14.2188 17.9455 14.1473 18.1459 14.0134C18.3463 13.8794 18.5025 13.6891 18.5948 13.4664C18.687 13.2437 18.7111 12.9986 18.6641 12.7622C18.6171 12.5258 18.501 12.3087 18.3306 12.1382C18.1601 11.9678 17.943 11.8517 17.7065 11.8047C17.4701 11.7576 17.2251 11.7818 17.0024 11.874C16.7797 11.9663 16.5893 12.1225 16.4554 12.3229C16.3215 12.5233 16.25 12.759 16.25 13C16.25 13.3232 16.3784 13.6332 16.607 13.8618C16.8356 14.0903 17.1455 14.2188 17.4688 14.2188ZM23.5625 6.5V19.5C23.5625 19.931 23.3913 20.3443 23.0866 20.649C22.7818 20.9538 22.3685 21.125 21.9375 21.125H8.42971L5.11878 23.985L5.10964 23.9921C4.81717 24.2401 4.44597 24.3758 4.06253 24.375C3.82382 24.3745 3.58811 24.3218 3.3719 24.2206C3.09146 24.091 2.85423 23.8834 2.68855 23.6227C2.52287 23.3619 2.43573 23.0589 2.43753 22.75V6.5C2.43753 6.06902 2.60873 5.6557 2.91348 5.35095C3.21823 5.0462 3.63155 4.875 4.06253 4.875H21.9375C22.3685 4.875 22.7818 5.0462 23.0866 5.35095C23.3913 5.6557 23.5625 6.06902 23.5625 6.5ZM21.9375 6.5H4.06253V22.75L7.59385 19.7031C7.74066 19.5736 7.92928 19.5015 8.12503 19.5H21.9375V6.5Z" fill="#B8B8BB"/>
</svg>
