<svg width="24" height="24" viewBox="0 0 24 24" fill="none" xmlns="http://www.w3.org/2000/svg">
<path d="M5.40002 4.1999C5.08176 4.1999 4.77654 4.32633 4.5515 4.55137C4.32645 4.77642 4.20002 5.08164 4.20002 5.3999V8.0999C4.20002 8.3386 4.1052 8.56752 3.93642 8.7363C3.76764 8.90508 3.53872 8.9999 3.30002 8.9999C3.06133 8.9999 2.83241 8.90508 2.66363 8.7363C2.49485 8.56752 2.40002 8.3386 2.40002 8.0999V5.3999C2.40002 4.60425 2.71609 3.84119 3.2787 3.27858C3.84131 2.71597 4.60438 2.3999 5.40002 2.3999H8.10002C8.33872 2.3999 8.56764 2.49472 8.73642 2.66351C8.9052 2.83229 9.00002 3.06121 9.00002 3.2999C9.00002 3.5386 8.9052 3.76752 8.73642 3.9363C8.56764 4.10508 8.33872 4.1999 8.10002 4.1999H5.40002ZM5.40002 19.7999C5.08176 19.7999 4.77654 19.6735 4.5515 19.4484C4.32645 19.2234 4.20002 18.9182 4.20002 18.5999V15.8999C4.20002 15.6612 4.1052 15.4323 3.93642 15.2635C3.76764 15.0947 3.53872 14.9999 3.30002 14.9999C3.06133 14.9999 2.83241 15.0947 2.66363 15.2635C2.49485 15.4323 2.40002 15.6612 2.40002 15.8999V18.5999C2.40002 19.3956 2.71609 20.1586 3.2787 20.7212C3.84131 21.2838 4.60438 21.5999 5.40002 21.5999H8.10002C8.33872 21.5999 8.56764 21.5051 8.73642 21.3363C8.9052 21.1675 9.00002 20.9386 9.00002 20.6999C9.00002 20.4612 8.9052 20.2323 8.73642 20.0635C8.56764 19.8947 8.33872 19.7999 8.10002 19.7999H5.40002ZM19.8 5.3999C19.8 5.08164 19.6736 4.77642 19.4486 4.55137C19.2235 4.32633 18.9183 4.1999 18.6 4.1999H15.9C15.6613 4.1999 15.4324 4.10508 15.2636 3.9363C15.0948 3.76752 15 3.5386 15 3.2999C15 3.06121 15.0948 2.83229 15.2636 2.66351C15.4324 2.49472 15.6613 2.3999 15.9 2.3999H18.6C19.3957 2.3999 20.1587 2.71597 20.7213 3.27858C21.284 3.84119 21.6 4.60425 21.6 5.3999V8.0999C21.6 8.3386 21.5052 8.56752 21.3364 8.7363C21.1676 8.90508 20.9387 8.9999 20.7 8.9999C20.4613 8.9999 20.2324 8.90508 20.0636 8.7363C19.8948 8.56752 19.8 8.3386 19.8 8.0999V5.3999ZM18.6 19.7999C18.9183 19.7999 19.2235 19.6735 19.4486 19.4484C19.6736 19.2234 19.8 18.9182 19.8 18.5999V15.8999C19.8 15.6612 19.8948 15.4323 20.0636 15.2635C20.2324 15.0947 20.4613 14.9999 20.7 14.9999C20.9387 14.9999 21.1676 15.0947 21.3364 15.2635C21.5052 15.4323 21.6 15.6612 21.6 15.8999V18.5999C21.6 19.3956 21.284 20.1586 20.7213 20.7212C20.1587 21.2838 19.3957 21.5999 18.6 21.5999H15.9C15.6613 21.5999 15.4324 21.5051 15.2636 21.3363C15.0948 21.1675 15 20.9386 15 20.6999C15 20.4612 15.0948 20.2323 15.2636 20.0635C15.4324 19.8947 15.6613 19.7999 15.9 19.7999H18.6ZM7.20002 8.0999C7.20002 7.86121 7.29485 7.63229 7.46363 7.46351C7.63241 7.29472 7.86133 7.1999 8.10002 7.1999H15.9C16.1387 7.1999 16.3676 7.29472 16.5364 7.46351C16.7052 7.63229 16.8 7.86121 16.8 8.0999C16.8 8.3386 16.7052 8.56752 16.5364 8.7363C16.3676 8.90508 16.1387 8.9999 15.9 8.9999H8.10002C7.86133 8.9999 7.63241 8.90508 7.46363 8.7363C7.29485 8.56752 7.20002 8.3386 7.20002 8.0999ZM8.10002 10.7999C7.86133 10.7999 7.63241 10.8947 7.46363 11.0635C7.29485 11.2323 7.20002 11.4612 7.20002 11.6999C7.20002 11.9386 7.29485 12.1675 7.46363 12.3363C7.63241 12.5051 7.86133 12.5999 8.10002 12.5999H15.9C16.1387 12.5999 16.3676 12.5051 16.5364 12.3363C16.7052 12.1675 16.8 11.9386 16.8 11.6999C16.8 11.4612 16.7052 11.2323 16.5364 11.0635C16.3676 10.8947 16.1387 10.7999 15.9 10.7999H8.10002ZM7.20002 15.2999C7.20002 15.0612 7.29485 14.8323 7.46363 14.6635C7.63241 14.4947 7.86133 14.3999 8.10002 14.3999H12.3C12.5387 14.3999 12.7676 14.4947 12.9364 14.6635C13.1052 14.8323 13.2 15.0612 13.2 15.2999C13.2 15.5386 13.1052 15.7675 12.9364 15.9363C12.7676 16.1051 12.5387 16.1999 12.3 16.1999H8.10002C7.86133 16.1999 7.63241 16.1051 7.46363 15.9363C7.29485 15.7675 7.20002 15.5386 7.20002 15.2999Z" fill="#B8B8BB"/>
</svg>
