<svg width="32" height="32" viewBox="0 0 32 32" fill="none" xmlns="http://www.w3.org/2000/svg">
<path d="M25.3884 7.93388C26.1187 7.93388 26.7107 7.34186 26.7107 6.61157C26.7107 5.88128 26.1187 5.28926 25.3884 5.28926C24.6581 5.28926 24.0661 5.88128 24.0661 6.61157C24.0661 7.34186 24.6581 7.93388 25.3884 7.93388Z" fill="white"/>
<path fill-rule="evenodd" clip-rule="evenodd" d="M6.34711 0C2.84168 0 0 2.8417 0 6.34711V25.6529C0 29.1583 2.84168 32 6.34711 32H16H25.6529C29.1583 32 32 29.1583 32 25.6529V6.34711C32 2.8417 29.1583 0 25.6529 0H6.34711ZM21.8682 22.1326C28.6864 15.3144 31.4898 7.06344 28.1299 3.70351C25.8234 1.39701 21.212 1.99499 16.3415 4.80236L16 0.411032L15.6253 5.23001C13.6307 6.46235 11.6096 8.05648 9.7008 9.96526C2.88262 16.7834 0.0791578 25.0344 3.43905 28.3944C5.81169 30.767 10.6232 30.0662 15.6469 27.0487L16 31.589L16.389 26.587C18.2382 25.3968 20.1013 23.8995 21.8682 22.1326ZM16.389 26.587C16.1413 26.7464 15.8939 26.9003 15.6469 27.0487L15.028 19.0891C14.7698 17.8292 14.1708 16.8447 12.9109 16.5864L7.35079 16L12.9109 15.4136C14.1708 15.1553 14.7698 14.1708 15.028 12.9109L15.6253 5.23001C15.8645 5.08223 16.1033 4.93965 16.3415 4.80236L16.972 12.9109C17.2302 14.1708 17.8292 15.1553 19.0891 15.4136L24.6492 16L19.0891 16.5864C17.8292 16.8447 17.2302 17.8292 16.972 19.0891L16.389 26.587Z" fill="white"/>
</svg>
